<svg xmlns="http://www.w3.org/2000/svg" xmlns:xlink="http://www.w3.org/1999/xlink" width="1847.135" height="913.103" viewBox="0 0 1847.135 913.103">
  <defs>
    <linearGradient id="linear-gradient" x1="0.5" y1="1" x2="0.5" gradientUnits="objectBoundingBox">
      <stop offset="0" stop-color="gray" stop-opacity="0.251"/>
      <stop offset="0.54" stop-color="gray" stop-opacity="0.122"/>
      <stop offset="1" stop-color="gray" stop-opacity="0.102"/>
    </linearGradient>
    <linearGradient id="linear-gradient-2" x1="0.5" y1="1" x2="0.5" y2="0" xlink:href="#linear-gradient"/>
  </defs>
  <g id="undraw_doctors_hwty" transform="translate(611.575 -0.003)" opacity="0.402">
    <path id="Path_1" data-name="Path 1" d="M92.492,356.76H199.88V503.143H100.344c-.254,1.513-.508,3.016-.794,4.529H199.88V625.707a1.511,1.511,0,0,1-.5-.19q-4.233-1.683-8.466-3.566c-.6-.275-1.2-.561-1.81-.825q-4.233-2-8.466-4.233c-.984-.519-1.968-1.058-2.931-1.609a176.123,176.123,0,0,1-42.223-32.868c-.37-.349-.709-.73-1.058-1.058-1.714-1.863-3.4-3.746-5.027-5.672-.614-.709-1.206-1.429-1.81-2.116-1.926-2.349-3.788-4.783-5.587-7.228-.275-.37-.529-.73-.794-1.058a156.319,156.319,0,0,1-18.2-32.911c-.148-.349-.286-.73-.423-1.058-1.46-3.7-2.783-7.46-3.926-11.291-.487-1.6-.963-3.175-1.365-4.836-.148-.476-.265-.963-.392-1.439-5.947-23.44-6.635-47.8-6.635-72.044v-8.466q.127-14.847.349-29.662.085-3.81.159-7.651.222-9.725.635-19.492c.063-1.8.148-3.609.243-5.4q.064-1.556.159-3.111Q92.1,362.305,92.492,356.76Z" transform="translate(-11.652 1.13)" fill="#ece80d" opacity="0.1"/>
    <path id="Path_2" data-name="Path 2" d="M197.091,206.835H138.18a448.424,448.424,0,0,1,31.334-43.112c8.762-10.751,17.99-21.228,27.577-31.323Z" transform="translate(-8.862 -11.932)" fill="#ece80d" opacity="0.1"/>
    <path id="Path_3" data-name="Path 3" d="M199.74,207V360.95H92.69c0-.444.063-.9.106-1.344.1-1.217.19-2.423.3-3.64.106-1.418.243-2.836.381-4.233s.275-3.09.444-4.624.307-3.09.476-4.624.339-3.069.529-4.593.36-3.069.571-4.593c.159-1.259.317-2.529.5-3.8.243-1.788.5-3.577.762-5.355a5.093,5.093,0,0,1,.127-.8,369.247,369.247,0,0,1,7.873-38.646,286.148,286.148,0,0,1,13.281-39.154A294.046,294.046,0,0,1,138.014,207Z" transform="translate(-11.511 -7.589)" fill="#ece80d" opacity="0.1"/>
    <path id="Path_4" data-name="Path 4" d="M218.09,376.45V522.833H447.47V376.45Zm0,150.913V653.079c1.312.265,2.6.529,3.9.751,1.746.339,3.5.646,5.291.91l1.058.148c.7.116,1.407.212,2.116.3,1.767.254,3.534.444,5.291.614.825.085,1.683.148,2.519.222l2.042.148h0c1.111.085,2.212.148,3.312.19.677,0,1.355.053,2.042.074s1.058,0,1.608,0h5.884c.91,0,1.82,0,2.72-.085h.053a16.206,16.206,0,0,0,1.894-.074,4.655,4.655,0,0,0,.54,0,12.751,12.751,0,0,0,1.566-.063,2.2,2.2,0,0,1,.36,0c1.175-.074,2.36-.169,3.556-.275s2.328-.233,3.524-.36l2.4-.3a210.726,210.726,0,0,0,29.048-6.18c21.408-5.968,42.329-14.318,63.726-20.424,27.641-7.884,58.2-11.767,84.912-2.169V527.363Zm229.38-313.9V18.581a294.747,294.747,0,0,0-74.52,8.73C314.864,41.9,262.7,73.556,218.09,113.98v99.473h11.545v4.519H218.09v153.95H447.47V217.971H276.863v-4.529Zm294.693-65.832c-14.371-.508-28.657-5.048-41.588-12.085-24.7-13.429-44.445-34.191-66.5-51.694-45.821-36.477-102.647-58.5-160.945-63.959v193.57H800.556l.815-.857Zm29.831-5.291,31.63,34.72V133.207c-10.646,1.344-19.916,4.466-31.63,9.09ZM803.624,684.3V527.363H736.173c-.169-.667-.36-1.344-.571-2.021.2.677.381,1.355.561,2.021H473.132V640.846c2.5,1.852,4.963,3.81,7.408,5.778h0q3.958,3.238,7.863,6.55l2.624,2.169c1.259,1.058,2.54,2.116,3.81,3.122q3.82,3.079,7.693,6.1,1.937,1.524,3.894,2.995a531.3,531.3,0,0,0,65.229,42.657c5.1,2.847,10.254,5.587,15.439,8.265q5.175,2.667,10.423,5.228,7.873,3.841,15.873,7.408h0a582.654,582.654,0,0,0,154.5,45q17.757,2.614,35.673,4.127V684.276h1.058ZM473.132,217.971v153.95H803.624V217.971Zm0,158.458v146.4H803.624V376.45ZM829.276,133v49l40.361-44.308Q849.572,134.371,829.276,133Zm0,243.454V522.833H1150.71V376.45Zm320.3,319.455,1.132-168.543H829.276V781.939a579.18,579.18,0,0,0,62.117-.751h.36q14.815-.953,29.493-2.709h.222a542.324,542.324,0,0,0,151.569-40.488m139.685-337.5q-1.831-4.233-3.757-8.466c-2.391-5.291-4.91-10.434-7.513-15.566h-25.08V522.833h63.4C1239.717,481.372,1229.219,439.044,1212.722,400.493Zm-36.35,126.87V672.339c17.852-17.112,32.953-36.7,43.81-59.091,13.069-26.974,19.048-56.16,19.545-85.9Zm0-193.57v38.1H1199.1a413.9,413.9,0,0,0-22.73-38.1ZM958.378,161.726c-1.672-.646-3.355-1.291-5.037-1.9A457.305,457.305,0,0,0,899.055,143.5l-61.779,67.79h0l-1.206,1.3.794.857H1056.74a469.748,469.748,0,0,0-98.361-51.726ZM1063.2,217.971H833.784l-4.508,4.116V371.921H1150.71V299.327a457.679,457.679,0,0,0-87.515-81.356Z" transform="translate(-4.21 -18.56)" fill="#ece80d" opacity="0.1"/>
    <path id="Path_5" data-name="Path 5" d="M199.74,280.39v76.287H92.69c0-.444.063-.9.106-1.344.1-1.217.19-2.423.3-3.64.106-1.418.243-2.836.381-4.233s.275-3.09.444-4.624.307-3.09.476-4.624.339-3.069.529-4.593.36-3.069.571-4.593c.159-1.259.317-2.529.5-3.8.243-1.788.5-3.577.762-5.355a5.092,5.092,0,0,1,.127-.8,369.244,369.244,0,0,1,7.873-38.646Z" transform="translate(-11.511 -3.316)" fill="#ece80d" opacity="0.1"/>
    <path id="Path_6" data-name="Path 6" d="M92.492,356.76H199.88V503.143H100.344c-.254,1.513-.508,3.016-.794,4.529H199.88V625.707a1.511,1.511,0,0,1-.5-.19q-4.233-1.683-8.466-3.566c-.6-.275-1.2-.561-1.81-.825q-4.233-2-8.466-4.233c-.984-.519-1.968-1.058-2.931-1.609a176.123,176.123,0,0,1-42.223-32.868c-.37-.349-.709-.73-1.058-1.058-1.714-1.863-3.4-3.746-5.027-5.672-.614-.709-1.206-1.429-1.81-2.116-1.926-2.349-3.788-4.783-5.587-7.228-.275-.37-.529-.73-.794-1.058a156.319,156.319,0,0,1-18.2-32.911c-.148-.349-.286-.73-.423-1.058-1.46-3.7-2.783-7.46-3.926-11.291-.487-1.6-.963-3.175-1.365-4.836-.148-.476-.265-.963-.392-1.439-5.947-23.44-6.635-47.8-6.635-72.044v-8.466q.127-14.847.349-29.662.085-3.81.159-7.651.222-9.725.635-19.492c.063-1.8.148-3.609.243-5.4q.064-1.556.159-3.111Q92.1,362.305,92.492,356.76Z" transform="translate(-11.652 1.13)" fill="#ece80d" opacity="0.1"/>
    <path id="Path_7" data-name="Path 7" d="M282.883,211.737v131.9H202.13v-131.9h11.513V167.08H260.9v44.657Z" transform="translate(11.74 9.727)" fill="#ece80d" opacity="0.1"/>
    <rect id="Rectangle_8" data-name="Rectangle 8" width="80.742" height="146.384" transform="translate(213.87 357.879)" fill="#ece80d" opacity="0.1"/>
    <path id="Path_8" data-name="Path 8" d="M218.09,499.37h80.742v121.7a209.133,209.133,0,0,1-29.048,6.169c-.8.116-1.6.212-2.4.3-1.185.138-2.36.265-3.534.37l-3.545.286h-.36l-1.566.085h-.54c-.635,0-1.259.074-1.894.085h-.053c-.91,0-1.81.063-2.72.085h-7.492a16.642,16.642,0,0,1-2.053-.085q-1.63-.063-3.3-.191h0l-2.042-.148c-.847-.064-1.693-.148-2.529-.233q-2.667-.233-5.291-.6l-2.116-.3-1.058-.148c-1.767-.265-3.524-.561-5.291-.9-1.312-.233-2.6-.5-3.9-.772Z" transform="translate(-4.21 9.433)" fill="#ece80d" opacity="0.1"/>
    <rect id="Rectangle_9" data-name="Rectangle 9" width="66.583" height="147.463" transform="translate(732.821 205.887)" fill="#ece80d" opacity="0.1"/>
    <path id="Path_10" data-name="Path 10" d="M790.64,656.447a5.988,5.988,0,0,1-1.058-.063v96.033q-17.895-1.471-35.662-4.116a583.424,583.424,0,0,1-154.564-44.974q-21.3-9.609-41.736-20.942A533.26,533.26,0,0,1,492.4,639.727q-7.81-5.968-15.387-12.2c-3.5-2.9-6.974-5.862-10.508-8.73-2.434-1.979-4.9-3.937-7.408-5.8V499.481H722.131c-.19-.677-.36-1.344-.55-2.021.2.677.391,1.344.561,2.021h67.451V656.373C789.942,656.384,790.291,656.415,790.64,656.447Z" transform="translate(9.822 9.321)" fill="#ece80d" opacity="0.1"/>
    <path id="Path_11" data-name="Path 11" d="M937.9,205.691H894.51V192.209h19.44V152.05q2.529.931,5.037,1.9v38.255h18.9Z" transform="translate(35.171 -10.788)" fill="#ece80d" opacity="0.1"/>
    <path id="Path_12" data-name="Path 12" d="M1048.194,360.95H835.174a.138.138,0,0,0,.063,0H795.65V213.487h11.2v109H858V257.932h42.276V207h43.387v50.964h42.255v64.551H1048.2Z" transform="translate(29.416 -7.589)" fill="#ece80d" opacity="0.1"/>
    <path id="Path_13" data-name="Path 13" d="M795.65,356.76V503.143H1048.2V356.76Zm321.074,318.683.36-115.875H1048.2V507.715H795.65V762.249a579.212,579.212,0,0,0,62.117-.751h.36q14.815-.953,29.493-2.709h.222A542.324,542.324,0,0,0,1039.411,718.3" transform="translate(29.416 1.13)" fill="#ece80d" opacity="0.1"/>
    <path id="Path_14" data-name="Path 14" d="M1128.094,499.37h58.911c-.508,29.726-6.476,58.922-19.545,85.885-10.858,22.4-25.958,41.99-43.81,59.1V551.233h4.444Z" transform="translate(48.512 9.433)" fill="#ece80d" opacity="0.1"/>
    <path id="Path_15" data-name="Path 15" d="M1186.8,501.821H1127.85V379.48h31.905C1176.253,418.031,1186.75,460.36,1186.8,501.821Z" transform="translate(48.756 2.453)" fill="#ece80d" opacity="0.1"/>
    <rect id="Rectangle_10" data-name="Rectangle 10" width="35.673" height="46.234" transform="translate(763.742 246.883)" fill="#ece80d" opacity="0.1"/>
    <rect id="Rectangle_11" data-name="Rectangle 11" width="35.673" height="10.646" transform="translate(763.742 342.715)" fill="#ece80d" opacity="0.1"/>
    <rect id="Rectangle_12" data-name="Rectangle 12" width="35.673" height="31.059" transform="translate(763.742 357.879)" fill="#ece80d" opacity="0.1"/>
    <rect id="Rectangle_13" data-name="Rectangle 13" width="35.673" height="46.234" transform="translate(763.742 438.547)" fill="#ece80d" opacity="0.1"/>
    <rect id="Rectangle_14" data-name="Rectangle 14" width="35.673" height="46.234" transform="translate(763.742 534.38)" fill="#ece80d" opacity="0.1"/>
    <path id="Path_16" data-name="Path 16" d="M773.373,649.582a5.148,5.148,0,0,1,1.058.074,5.994,5.994,0,0,1-1.058-.063v10.741H737.7V614.1h35.673Z" transform="translate(26.042 16.112)" fill="#ece80d" opacity="0.1"/>
    <path id="Path_17" data-name="Path 17" d="M773.373,704.65v35.7q-17.905-1.471-35.673-4.116V704.65Z" transform="translate(26.042 21.384)" fill="#ece80d" opacity="0.1"/>
    <path id="Path_19" data-name="Path 19" d="M606.561,672.17v20.984H593.936q-21.3-9.609-41.736-20.942Z" transform="translate(15.242 19.493)" fill="#ece80d" opacity="0.1"/>
    <rect id="Rectangle_18" data-name="Rectangle 18" width="30.096" height="30.096" transform="translate(887.183 372.07)" fill="#ece80d" opacity="0.1"/>
    <rect id="Rectangle_19" data-name="Rectangle 19" width="30.096" height="30.096" transform="translate(235.552 231.845)" fill="#ece80d" opacity="0.1"/>
    <rect id="Rectangle_20" data-name="Rectangle 20" width="30.096" height="30.096" transform="translate(235.552 301.751)" fill="#ece80d" opacity="0.1"/>
    <rect id="Rectangle_21" data-name="Rectangle 21" width="30.096" height="30.096" transform="translate(235.552 371.657)" fill="#ece80d" opacity="0.1"/>
    <rect id="Rectangle_22" data-name="Rectangle 22" width="30.096" height="30.096" transform="translate(235.552 441.553)" fill="#ece80d" opacity="0.1"/>
    <rect id="Rectangle_23" data-name="Rectangle 23" width="30.096" height="30.096" transform="translate(235.552 511.459)" fill="#ece80d" opacity="0.1"/>
    <rect id="Rectangle_24" data-name="Rectangle 24" width="30.096" height="30.096" transform="translate(235.552 581.365)" fill="#ece80d" opacity="0.1"/>
    <rect id="Rectangle_25" data-name="Rectangle 25" width="30.096" height="30.096" transform="translate(1002.074 372.07)" fill="#ece80d" opacity="0.1"/>
    <rect id="Rectangle_26" data-name="Rectangle 26" width="30.096" height="30.096" transform="translate(887.183 446.304)" fill="#ece80d" opacity="0.1"/>
    <rect id="Rectangle_27" data-name="Rectangle 27" width="30.096" height="30.096" transform="translate(1002.074 446.304)" fill="#ece80d" opacity="0.1"/>
    <rect id="Rectangle_28" data-name="Rectangle 28" width="30.096" height="30.096" transform="translate(887.183 520.528)" fill="#ece80d" opacity="0.1"/>
    <rect id="Rectangle_29" data-name="Rectangle 29" width="30.096" height="30.096" transform="translate(1002.074 520.528)" fill="#ece80d" opacity="0.1"/>
    <rect id="Rectangle_30" data-name="Rectangle 30" width="30.096" height="30.096" transform="translate(887.183 594.762)" fill="#ece80d" opacity="0.1"/>
    <rect id="Rectangle_31" data-name="Rectangle 31" width="30.096" height="30.096" transform="translate(1002.074 594.762)" fill="#ece80d" opacity="0.1"/>
    <rect id="Rectangle_32" data-name="Rectangle 32" width="30.096" height="30.096" transform="translate(887.183 668.996)" fill="#ece80d" opacity="0.1"/>
    <rect id="Rectangle_33" data-name="Rectangle 33" width="30.096" height="30.096" transform="translate(1002.074 668.996)" fill="#ece80d" opacity="0.1"/>
    <path id="Path_20" data-name="Path 20" d="M838.4,721.738V702.33h30.085v16.646Z" transform="translate(48.783 40.89)" fill="#ece80d" opacity="0.1"/>
    <path id="Path_21" data-name="Path 21" d="M96.53,316.91v17.217H199.516V316.91Zm10.254,16.138H98.318V318h8.466Zm10.254,0h-8.466V318h8.466Zm10.233,0h-8.466V318h8.466Zm10.254,0H129.06V318h8.466Zm10.244,0H139.3V318h8.466Zm10.254,0h-8.466V318h8.466Zm10.254,0h-8.466V318h8.466Zm10.244,0h-8.466V318h8.466Zm10.244,0H180.3V318h8.466Zm10.254,0h-8.466V318h8.466Z" transform="translate(-11.287 -1.19)" fill="#ece80d" opacity="0.1"/>
    <path id="Path_22" data-name="Path 22" d="M96.53,364.27v17.217H199.516V364.27Zm10.254,16.138H98.318V365.36h8.466Zm10.254,0h-8.466V365.36h8.466Zm10.233,0h-8.466V365.36h8.466Zm10.254,0H129.06V365.36h8.466Zm10.244,0H139.3V365.36h8.466Zm10.254,0h-8.466V365.36h8.466Zm10.254,0h-8.466V365.36h8.466Zm10.244,0h-8.466V365.36h8.466Zm10.244,0H180.3V365.36h8.466Zm10.254,0h-8.466V365.36h8.466Z" transform="translate(-11.287 1.567)" fill="#ece80d" opacity="0.1"/>
    <path id="Path_23" data-name="Path 23" d="M96.53,411.64v17.207H199.516V411.64Zm10.254,16.117H98.318V412.709h8.466Zm10.254,0h-8.466V412.709h8.466Zm10.233,0h-8.466V412.709h8.466Zm10.254,0H129.06V412.709h8.466Zm10.244,0H139.3V412.709h8.466Zm10.254,0h-8.466V412.709h8.466Zm10.254,0h-8.466V412.709h8.466Zm10.244,0h-8.466V412.709h8.466Zm10.244,0H180.3V412.709h8.466Zm10.254,0h-8.466V412.709h8.466Z" transform="translate(-11.287 4.325)" fill="#ece80d" opacity="0.1"/>
    <path id="Path_24" data-name="Path 24" d="M96.53,459v17.207H199.516V459Zm10.254,16.127H98.318V460.058h8.466Zm10.254,0h-8.466V460.058h8.466Zm10.233,0h-8.466V460.058h8.466Zm10.254,0H129.06V460.058h8.466Zm10.244,0H139.3V460.058h8.466Zm10.254,0h-8.466V460.058h8.466Zm10.254,0h-8.466V460.058h8.466Zm10.244,0h-8.466V460.058h8.466Zm10.244,0H180.3V460.058h8.466Zm10.254,0h-8.466V460.058h8.466Z" transform="translate(-11.287 7.082)" fill="#ece80d" opacity="0.1"/>
    <path id="Path_25" data-name="Path 25" d="M97,506.34c.4,1.63.878,3.238,1.365,4.836V507.43h8.466v15.037h-4.54c.127.36.265.73.413,1.058h96.827V506.34Zm20.106,16.127H108.64V507.43h8.466Zm10.233,0h-8.466V507.43h8.466Zm10.254,0h-8.466V507.43h8.466Zm10.244,0h-8.466V507.43h8.466Zm10.254,0h-8.466V507.43h8.466Zm10.254,0h-8.466V507.43h8.466Zm10.244,0h-8.466V507.43h8.466Zm10.244,0h-8.466V507.43h8.466Zm10.254,0h-8.466V507.43h8.466Z" transform="translate(-11.26 9.838)" fill="#ece80d" opacity="0.1"/>
    <path id="Path_26" data-name="Path 26" d="M119.54,553.7c.275.339.529.72.794,1.058h5.6v7.228l1.81,2.117v-9.387h8.466v15.175h-3.482c.339.349.667.72,1.058,1.058h64.372V553.7Zm26.942,16.191h-8.466V554.779h8.466Zm10.254,0h-8.466V554.779h8.466Zm10.254,0h-8.466V554.779h8.466Zm10.244,0h-8.466V554.779h8.466Zm10.244,0h-8.466V554.779h8.466Zm10.254,0h-8.466V554.779h8.466Z" transform="translate(-9.947 12.596)" fill="#ece80d" opacity="0.1"/>
    <path id="Path_27" data-name="Path 27" d="M172.93,601.06c.974.55,1.958,1.058,2.942,1.6v-.529h8.466V606.9c.614.265,1.2.55,1.8.826v-5.6H194.6v9.164a3.444,3.444,0,0,0,.5.18V601.06Z" transform="translate(-6.839 15.353)" fill="#ece80d" opacity="0.1"/>
    <path id="Path_28" data-name="Path 28" d="M868.165,361.2ZM802.979,673.533ZM734.967,514.62c.2.677.381,1.355.561,2.021h0C735.369,515.974,735.178,515.3,734.967,514.62ZM868.165,361.2ZM229,202.741v4.508h47.271V202.72ZM802.989,673.533ZM734.967,514.62c.2.677.381,1.355.561,2.021h0C735.369,515.974,735.178,515.3,734.967,514.62ZM868.165,361.2ZM802.979,673.533ZM734.967,514.62c.2.677.381,1.355.561,2.021h0C735.369,515.974,735.178,515.3,734.967,514.62Z" transform="translate(-840.575 -44.838)" fill="#ece80d" opacity="0.1"/>
    <ellipse id="Ellipse_6" data-name="Ellipse 6" cx="103.113" cy="16.561" rx="103.113" ry="16.561" transform="translate(827.489 879.984)" fill="#ece80d" opacity="0.1"/>
    <ellipse id="Ellipse_7" data-name="Ellipse 7" cx="103.113" cy="16.561" rx="103.113" ry="16.561" transform="translate(-474.556 826.423)" fill="#ece80d" opacity="0.1"/>
    <path id="Path_29" data-name="Path 29" d="M578.216,445.619a.561.561,0,0,0-.159-.275c-1.577-1.556-21.683-29.99-21.683-29.99s-1.058-3.175-2.773-7.3a7.257,7.257,0,0,0,1.217-2.381,8.138,8.138,0,0,0,.2-1.111c0-.116.085-.212.116-.328a8.031,8.031,0,0,0-.106-4.36,7.546,7.546,0,0,1-.434,1.058,17.7,17.7,0,0,0-1.587-3.534c-2.667-4.593-6.476-8.466-9.281-12.942a35.017,35.017,0,0,1-4.773-23.239c0,.413,0,.836,0,1.249a36.221,36.221,0,0,1,.635-4.762,33.051,33.051,0,0,1,1.767-5.228c2.518-5.767,6.593-10.794,9.069-16.582a31.422,31.422,0,0,0,1.884-6.064,33.97,33.97,0,0,0,.942-10.635,16.94,16.94,0,0,1-.265,2.529,34.444,34.444,0,0,0-9.725-22.932c-8.646-8.688-21.059-12.064-32.932-13.841a30.17,30.17,0,0,1-13.863-5.291c-4.561-2.952-10.455-3.661-15.789-3.016a26.043,26.043,0,0,0-16.074,7.947c-5.64,6.2-8.085,14.984-14.667,20.212-3.989,3.175-9.048,4.656-13.693,6.815s-9.037,5.291-10.529,9.926v.169l-.064.169c-1.545,5.482,1.439,11.058,2.995,16.529,1.619,5.661,1.725,11.64,1.81,17.492.116,7.154.222,14.318.106,21.482-.053,2.815-.148,5.662-.36,8.466a44.355,44.355,0,0,0-7.27,2.921c-2.37,1.545-11.238,11.122-11.238,11.122L394.35,466.159l.233.265-.233.9.878-.2c2.455,2.646,9.789,10.18,17.7,14.879L413.673,495s.889,13.037,12.879,18.424c.275,4.518,1.132,22.868-2.836,30.138a33.862,33.862,0,0,0-3.746,17.228s1.386,11.027-.191,16.826a27.517,27.517,0,0,0-.2,11.81h0V592.9c0,11.736.138,49.345,0,53.6-.2,5.027,0,79.367,0,79.367s-.984,37.154-4.138,47.218-2.36,43.387-2.36,43.387S411.1,856.166,418.1,864c0,.349-.064.709-.074,1.058v.5c-.085,3.016.5,6.222,3.09,7.207,5.291,2.032,12.286,8.127,13.609,9.873s9.016,6.1,19.048,4.931A143.412,143.412,0,0,1,472.7,886.7h0s3.958-.72,2.677-5.64h0c-.825-3.069-3.915-7.789-6.116-10.889.4.106.794.19,1.164.264l.381.074h.3a4.074,4.074,0,0,0,.487,0h.212a3.659,3.659,0,0,0,.593,0h0c2.656-.254,12.561,4.36,14.328,7.407s8,5.365,12.7,5.947c2.794.339,9.841-.233,15.757-.995A58.007,58.007,0,0,0,524,881.256c1.4-.529,1.693-2.222,1.291-4.127h0a10.741,10.741,0,0,0-3.661-6.18c-1.714-1.217-3.979-4.423-5.651-7.048l-.445-.709c2.953-2.815,8.286-12.021,9.9-13.926,1.968-2.318-3.175-87.07-3.175-87.07V719.708l7.884-40.212,5.513-21.281,4.73-32.128s8.275-37.524,5.725-41.207h0c0-.074-2.117-38.71-4.339-47.99-.963-4.138-.72-13.45-.148-22.508a4.444,4.444,0,0,0,1.058-4.635,9.616,9.616,0,0,0-.614-1.577v-.487a72.878,72.878,0,0,1,14.254-4.847c7.884-1.545,5.916-5.609,5.916-5.609s1.778-3.482,2.952-5.609.2-20.9,0-22.445c-.074-.624-.561-4.074-1.122-7.99,2.529-1.8,5.82-4.032,9.408-6.148C580.311,450.994,578.777,446.73,578.216,445.619ZM475.357,713.909s-5.916,15.09-3.545,18.953-.392,18.2-.392,18.2l-1.979,21.281s-5.513,39.472-3.545,48.752c1.545,7.281,2.116,29.027,2.3,38.1h0a2.666,2.666,0,0,0-.392.191l-.265.138c.91-3.566.529-10.783-3.989-25.3l-.381-59.969s-.7-69.271,4.773-77.017,7.408-20.9,7.408-20.9-1.185,18.974-1.958,24S475.357,713.909,475.357,713.909ZM464.341,862.97c-.053.127-.116.254-.159.37l-.3-.381A3.146,3.146,0,0,0,464.341,862.97Z" transform="translate(-830.948 -40.547)" fill="url(#linear-gradient)"/>
    <path id="Path_30" data-name="Path 30" d="M520.777,854.444c-3.058,1.175-19.641,3.175-24.276,2.614s-10.773-2.91-12.519-5.979-11.535-7.7-14.159-7.407a9.523,9.523,0,0,1-3.175-.444,39.07,39.07,0,0,1-5.291-2.032,9.822,9.822,0,0,1,.117-4.021,6.417,6.417,0,0,1,.233-.783,7,7,0,0,1,3.556-3.958l.381-.18a10.759,10.759,0,0,1,2.286-.7c8.318-1.6,42.636,1.608,42.636,1.608s.963,1.725,2.286,3.863c1.651,2.646,3.894,5.873,5.587,7.09a10.848,10.848,0,0,1,3.609,6.222C522.449,852.211,522.153,853.925,520.777,854.444Z" transform="translate(-827.056 -8.253)" fill="#fff"/>
    <path id="Path_31" data-name="Path 31" d="M520.777,854.281c-3.058,1.174-19.63,3.175-24.265,2.614s-10.773-2.921-12.529-5.979-11.524-7.7-14.148-7.408-8.466-2.476-8.466-2.476-.91-4.233,1.735-7.122l5.291,3.757s14.159,4.392,16.783,8.466,7.408,6.349,14.318,6.762c5.164.338,17.027-1.672,22.582-2.677C522.449,852.048,522.163,853.762,520.777,854.281Z" transform="translate(-827.055 -8.09)" opacity="0.1"/>
    <path id="Path_32" data-name="Path 32" d="M472.6,859.82a140.87,140.87,0,0,0-18.688.878c-9.937,1.164-17.524-3.175-18.847-4.963s-8.169-7.831-13.429-9.947c-2.571-.995-3.175-4.233-3.058-7.259v-.5a29.627,29.627,0,0,1,.847-5.682l41.175-.879,3.566,4.836.55.741L466.888,840s.984,1.291,2.275,3.175c2.18,3.175,5.228,7.863,6.042,10.963h0C476.508,859.1,472.6,859.82,472.6,859.82Z" transform="translate(-829.538 -8.232)" fill="#fff"/>
    <path id="Path_33" data-name="Path 33" d="M472.6,859.43a140.87,140.87,0,0,0-18.688.878c-9.926,1.164-17.524-3.175-18.836-4.963s-8.18-7.884-13.439-9.926c-2.571-.995-3.175-4.233-3.058-7.26,2.942.688,9.122,2.445,11.545,5.5,3.175,4.085,8.857,10.953,16.932,11.386,6.519.349,22.392-.815,28.212-1.28C476.518,858.71,472.6,859.43,472.6,859.43Z" transform="translate(-829.538 -7.843)" opacity="0.1"/>
    <path id="Path_34" data-name="Path 34" d="M467.705,832.371c-.476,3.535-1.947,4.487-3.005,4.7a2.041,2.041,0,0,1-.783,0,2.591,2.591,0,0,1-.413-.063s-36.974,8.169-44.445,1.556a5.175,5.175,0,0,1-.529-.55,29.647,29.647,0,0,1,.847-5.682l41.175-.878,3.566,4.836a7,7,0,0,1,3.556-3.958Z" transform="translate(-829.54 -8.234)" opacity="0.1"/>
    <path id="Path_35" data-name="Path 35" d="M512.6,836.988c-.825.91-1.513,1.429-1.947,1.249-1.947-.783-17.905-3.5-22.974-1.164s-22.223.381-22.223.381,0-2.032-.1-5.291a10.766,10.766,0,0,1,2.286-.7c8.318-1.6,42.636,1.609,42.636,1.609S511.287,834.851,512.6,836.988Z" transform="translate(-826.814 -8.259)" opacity="0.1"/>
    <path id="Path_36" data-name="Path 36" d="M539.753,613.461l-4.677,32.318L529.637,667.2l-7.789,40.488v42.858s5.058,85.271,3.111,87.6-9.344,15.588-11.291,14.815-17.905-3.5-22.974-1.175-22.223.391-22.223.391-.392-33.091-2.339-42.435,3.5-49.059,3.5-49.059l1.947-21.408s2.73-14.413.392-18.307,3.5-19.048,3.5-19.048-2.72-8.582-1.937-13.64,1.937-24.138,1.937-24.138-1.937,13.249-7.344,21.027-4.72,77.483-4.72,77.483l.381,60.318c9.746,31.937,0,28.815,0,28.815s-36.974,8.18-44.445,1.556-5.333-48.318-5.333-48.318-.773-33.482,2.339-43.6,4.1-47.5,4.1-47.5-.2-74.763,0-79.811c.148-4.233,0-42.128,0-53.969v-3.5l4.466-11.09,52.911-6.624h25.313s38.1,8.953,42.033,12.815a.883.883,0,0,1,.212.233C547.933,575.7,539.753,613.461,539.753,613.461Z" transform="translate(-829.82 -24.1)" fill="#f7921e"/>
    <path id="Path_37" data-name="Path 37" d="M472.11,770.88s11.64,28.032,17.133,29.979S472.11,770.88,472.11,770.88Z" transform="translate(-826.421 -11.76)" opacity="0.1"/>
    <path id="Path_38" data-name="Path 38" d="M476.18,809.88s39.3,1.947,38.911,6.233S476.18,809.88,476.18,809.88Z" transform="translate(-826.184 -9.489)" opacity="0.1"/>
    <path id="Path_39" data-name="Path 39" d="M426.49,799.29c1.556,1.471,29.979,4.233,27.641,6.921s-25.3,7.916-25.3,7.916Z" transform="translate(-829.077 -10.106)" opacity="0.1"/>
    <path id="Path_40" data-name="Path 40" d="M422.08,753.59c0,1.164,5.841,37.376,7.408,38.932s14.4,3.111,14.4,3.111Z" transform="translate(-829.334 -12.767)" opacity="0.1"/>
    <path id="Path_41" data-name="Path 41" d="M464.373,286.3c-5.577,6.233-7.99,15.069-14.487,20.339-3.947,3.175-8.942,4.688-13.535,6.847s-9.143,5.45-10.508,10.339c-1.524,5.5,1.418,11.122,2.963,16.625,1.6,5.693,1.693,11.64,1.788,17.6.106,7.206.222,14.413.1,21.619-.19,11.228-1.122,22.974-7.079,32.487,21.514,6.847,44.392,7.778,66.954,8.656a67.561,67.561,0,0,0,13.005-.328,111.624,111.624,0,0,0,11.08-2.8,84.953,84.953,0,0,1,22.075-2.826c3.249,0,6.561.2,9.693-.645s6.148-3.016,6.995-6.148c.751-2.815-.349-5.81-1.788-8.339-2.624-4.614-6.349-8.466-9.164-13.016a35.768,35.768,0,0,1-2.3-32.159c2.5-5.81,6.519-10.868,8.974-16.688a35.2,35.2,0,0,0-7.09-37.334c-8.54-8.741-20.794-12.127-32.519-13.926a29.535,29.535,0,0,1-13.693-5.291c-4.5-2.963-10.328-3.683-15.6-3.026a25.461,25.461,0,0,0-15.863,8.021Z" transform="translate(-829.245 -40.452)" fill="#3f3d56"/>
    <g id="Group_1" data-name="Group 1" transform="translate(-405.211 280.625)" opacity="0.1">
      <path id="Path_42" data-name="Path 42" d="M534.213,346.076a35.2,35.2,0,0,0-2.7,16.159,34.6,34.6,0,0,1,2.7-11.471c2.487-5.81,6.508-10.868,8.963-16.688a33.766,33.766,0,0,0,2.466-15.365,32.912,32.912,0,0,1-2.466,10.688C540.721,335.218,536.7,340.266,534.213,346.076Z" transform="translate(-417.756 -318.71)"/>
      <path id="Path_43" data-name="Path 43" d="M430.794,354.118c.064,4.148.127,8.307.138,12.455q0-8.572-.138-17.122c-.085-5.915-.19-11.905-1.788-17.609-1.058-3.619-2.624-7.291-3.175-10.942-.942,5.185,1.736,10.445,3.175,15.619C430.6,342.17,430.709,348.2,430.794,354.118Z" transform="translate(-423.915 -318.583)"/>
      <path id="Path_44" data-name="Path 44" d="M546.753,401.325c-3.175.857-6.434.667-9.683.645a84.9,84.9,0,0,0-22.064,2.773,112.356,112.356,0,0,1-11.08,2.794,66.847,66.847,0,0,1-13.016.339c-21.8-.857-43.906-1.778-64.784-8.011a35.908,35.908,0,0,1-2.116,4.021c21.514,6.836,44.392,7.778,66.943,8.656a66.857,66.857,0,0,0,13.016-.339,109.435,109.435,0,0,0,11.037-2.783,84.894,84.894,0,0,1,22.022-2.8c3.249,0,6.55.2,9.683-.656s6.148-3.005,6.995-6.138a8.4,8.4,0,0,0-.106-4.4C552.658,398.383,549.748,400.447,546.753,401.325Z" transform="translate(-424.01 -314.244)"/>
    </g>
    <path id="Path_45" data-name="Path 45" d="M514.365,392.576c-.783,1.757-4.085,16.932-4.868,18.487s-5.058,26.455-5.45,27.852-28.18-5.841-28.18-5.841l-16.73-14.021-17.2-17.111s-.508-15.439,12.159-20.392a19.323,19.323,0,0,1,2.646-.825c15.365-3.693,13.82-50.414,13.82-50.414L502.1,343.929s-5.841,27.26-5.64,32.519c.053,1.767,1.439,2.868,3.249,3.534a25.682,25.682,0,0,0,8.614.931S515.148,390.83,514.365,392.576Z" transform="translate(-828.177 -37.41)" fill="#fbbebe"/>
    <path id="Path_46" data-name="Path 46" d="M566.022,437.658l4.476,1.175s3.312,5.037-4.476,9.725a134.9,134.9,0,0,0-14.212,9.937L528.794,465.5l-4.434-13.916,21.418-16.254Z" transform="translate(-823.379 -31.296)" fill="#ece80d"/>
    <path id="Path_47" data-name="Path 47" d="M566.022,437.658l4.476,1.175s3.312,5.037-4.476,9.725a134.9,134.9,0,0,0-14.212,9.937L528.794,465.5l-4.434-13.916,21.418-16.254Z" transform="translate(-823.379 -31.296)" opacity="0.1"/>
    <path id="Path_48" data-name="Path 48" d="M405.493,450.369l-8.953,8.762s16.148,18.688,28.572,19.852,20.434-14.212,20.434-14.212L434.795,447.84Z" transform="translate(-830.82 -30.567)" fill="#ece80d"/>
    <path id="Path_49" data-name="Path 49" d="M405.493,450.369l-8.953,8.762s16.148,18.688,28.572,19.852,20.434-14.212,20.434-14.212L434.795,447.84Z" transform="translate(-830.82 -30.567)" fill="#f7921e" opacity="0.1"/>
    <circle id="Ellipse_8" data-name="Ellipse 8" cx="31.143" cy="31.143" r="31.143" transform="translate(-371.433 261.143)" opacity="0.1"/>
    <circle id="Ellipse_9" data-name="Ellipse 9" cx="31.143" cy="31.143" r="31.143" transform="translate(-371.433 258.804)" fill="#fbbebe"/>
    <path id="Path_50" data-name="Path 50" d="M545.035,575.5a100.52,100.52,0,0,0-20.836,4.667c-11.64,3.873-102.859.063-104.129,0v-3.5l4.466-11.09,52.911-6.624h25.313s38.1,8.953,42.032,12.815C544.951,574.093,545.035,575.5,545.035,575.5Z" transform="translate(-829.451 -24.099)" opacity="0.1"/>
    <path id="Path_51" data-name="Path 51" d="M514.365,389.843c-.783,1.757-4.085,16.931-4.868,18.487s-5.058,26.456-5.45,27.852-28.18-5.841-28.18-5.841l-16.73-14.021-17.2-17.111s-.508-15.439,12.159-20.392l31.45,36.159,14.159-37.725a25.687,25.687,0,0,0,8.614.931S515.148,388.1,514.365,389.843Z" transform="translate(-828.177 -34.677)" opacity="0.1"/>
    <path id="Path_52" data-name="Path 52" d="M487.252,416.229l-32.191-37.038a13.492,13.492,0,0,0-12.773-.942c-7.206,3.122-16.159,5.651-18.5,7.206s-11.1,11.185-11.1,11.185l26.1,68.266L427.293,509.87s1.757,22.974-2.72,31.345a34.4,34.4,0,0,0-3.7,17.323s1.365,11.1-.19,16.932a28.2,28.2,0,0,0-.2,11.873s92.478,3.894,104.15,0a99.656,99.656,0,0,1,20.836-4.667s-2.116-38.943-4.233-48.287,1.757-44.964,1.757-44.964l-2.529-38.159,15.175-39.154s-8.222-25.1-16.794-27.63c0,0-15.566-3.7-18.879-5.45s-13.048-3.312-13.048-3.312l-5.111,1.714Z" transform="translate(-829.88 -34.766)" fill="#f7921e"/>
    <rect id="Rectangle_34" data-name="Rectangle 34" width="74.118" height="113.42" rx="2.94" transform="translate(-368.555 410.396) rotate(3.89)" opacity="0.1"/>
    <rect id="Rectangle_35" data-name="Rectangle 35" width="74.118" height="113.42" rx="2.94" transform="translate(-366.223 408.073) rotate(3.89)" fill="#3f3d56"/>
    <rect id="Rectangle_36" data-name="Rectangle 36" width="64.573" height="97.589" transform="translate(-362.039 416.893) rotate(3.89)" fill="#fff"/>
    <rect id="Rectangle_37" data-name="Rectangle 37" width="52.754" height="14.703" transform="translate(-356.02 442.44) rotate(4.004)" opacity="0.1"/>
    <rect id="Rectangle_38" data-name="Rectangle 38" width="8.371" height="7.662" transform="translate(-313.647 503.843) rotate(3.89)" opacity="0.1"/>
    <rect id="Rectangle_39" data-name="Rectangle 39" width="42.847" height="7.662" transform="translate(-356.282 483.056) rotate(3.89)" opacity="0.1"/>
    <rect id="Rectangle_40" data-name="Rectangle 40" width="44.615" height="11.778" transform="translate(-350.101 414.606) rotate(3.89)" fill="#3f3d56"/>
    <rect id="Rectangle_41" data-name="Rectangle 41" width="44.615" height="11.778" transform="translate(-350.101 414.606) rotate(3.89)" opacity="0.1"/>
    <path id="Path_53" data-name="Path 53" d="M487.687,572.56s-.391,57.631-15.577,90.721c0,0,18.307-43.609,18.307-45.355s10.117-20.053,7.408-25.5S487.687,572.56,487.687,572.56Z" transform="translate(-826.421 -23.306)" opacity="0.1"/>
    <path id="Path_54" data-name="Path 54" d="M489.671,321.962a21.662,21.662,0,0,1,3.524-14.508,17.873,17.873,0,0,0,13.82,18.836,2.339,2.339,0,0,1-.667-2.561c2.169,2.455,3.831,5.365,6.286,7.524s6.138,3.45,9.027,1.915c3.926-2.116,3.968-7.693,2.952-12.032A56.509,56.509,0,0,0,511.607,296.3a17.206,17.206,0,0,0-13.651-6.942c-6.011-.466-12.254.064-17.641,2.762a46.88,46.88,0,0,0-8.466,5.916l-14.815,12.085a14.063,14.063,0,0,0-3.6,3.788,10.368,10.368,0,0,0-1.122,3.968,21.386,21.386,0,0,0,9.968,20.18,15.778,15.778,0,0,1,9.45-14.815A4.106,4.106,0,0,1,473.2,326.3l3.122-5.566a6.126,6.126,0,0,1,2.116-2.508c1.926-1.058,4.328.19,5.969,1.683s3.238,3.355,5.439,3.587l.085-8.286" transform="translate(-827.579 -39.803)" opacity="0.1"/>
    <path id="Path_55" data-name="Path 55" d="M489.668,320.862a21.673,21.673,0,0,1,3.524-14.519c-.952,8.466,5.429,17.207,13.831,18.836a2.317,2.317,0,0,1-.667-2.55c2.169,2.455,3.831,5.355,6.286,7.524s6.138,3.45,9.027,1.9c3.926-2.116,3.968-7.693,2.952-12.021A56.51,56.51,0,0,0,511.616,295.2a20.815,20.815,0,0,0-7.27-5.651A21.166,21.166,0,0,0,498,288.258c-6.011-.466-12.254.053-17.641,2.751a47.469,47.469,0,0,0-8.466,5.926l-14.815,12.085a13.914,13.914,0,0,0-3.6,3.788,10.317,10.317,0,0,0-1.122,3.968,21.376,21.376,0,0,0,9.968,20.17,15.8,15.8,0,0,1,9.45-14.815,4.137,4.137,0,0,1,1.471,3.058l3.111-5.545a6.063,6.063,0,0,1,2.116-2.508c1.926-1.058,4.328.19,5.969,1.683s3.238,3.344,5.439,3.587l.085-8.3" transform="translate(-827.577 -39.867)" fill="#3f3d56"/>
    <path id="Path_56" data-name="Path 56" d="M506.722,508c-2.72-1.376-47.694,5.64-47.694,5.64s-7.408-2.116-25.313-5.058-19.048-20.445-19.048-20.445L412.71,453.1l6.042-5.291,25.884,16.932s.4,8.561,0,10.106c-.254,1.058-.931,2.318-.868,3.175a1.058,1.058,0,0,0,.868.952c1.757.444,25.694,4.317,25.694,4.317s55.482-3.8,69.313,14.889a14.053,14.053,0,0,1,2.445,4.614C545.517,515.568,509.188,509.219,506.722,508Z" transform="translate(-829.879 -30.569)" fill="#fbbebe"/>
    <path id="Path_57" data-name="Path 57" d="M540.456,501.2c-2.116.942-3.429,1.619-3.429,1.619s-19.852-.582-31.006-4.624-24.709-3.323-24.709-3.323-46.477-8-39.271-18.445a1.058,1.058,0,0,0,.868.952c1.757.444,25.694,4.318,25.694,4.318s55.482-3.8,69.313,14.889a14.051,14.051,0,0,1,2.54,4.614Z" transform="translate(-828.216 -28.903)" opacity="0.1"/>
    <path id="Path_58" data-name="Path 58" d="M559.756,441.58s2.73,19.27,2.921,20.836,1.174,20.434,0,22.582-2.921,5.64-2.921,5.64,1.947,4.085-5.841,5.651-16.931,6.222-16.931,6.222-19.863-.582-30.953-4.667-24.72-3.312-24.72-3.312-59-10.127-33.683-22.487,43.218,4.381,43.218,4.381l28.223-1.746s10.519-6.434,13.439-5.841a10.8,10.8,0,0,0,6.032-.974l.2-20.445Z" transform="translate(-828.214 -30.932)" fill="#fbbebe"/>
    <path id="Path_59" data-name="Path 59" d="M419.253,396.9l-5.651-.3L396.48,463.268s18.487-4.677,26.455,0,22.582,5.64,22.582,5.64l-5.45-53.144Z" transform="translate(-830.824 -33.551)" opacity="0.1"/>
    <path id="Path_60" data-name="Path 60" d="M419.253,395.786l-5.651-.3L396.48,462.158s18.487-4.677,26.455,0,22.582,5.64,22.582,5.64l-5.45-53.144Z" transform="translate(-830.824 -33.615)" fill="#f7921e"/>
    <path id="Path_61" data-name="Path 61" d="M541.057,409.57l7.778,1.757S568.7,439.9,570.253,441.5s-7.407,7.408-11.1,7.408-21.8,2.116-27.059,7.005-3.069-19.715-3.069-20.276,6.529-16.085,6.529-16.085Z" transform="translate(-823.134 -32.796)" opacity="0.1"/>
    <path id="Path_62" data-name="Path 62" d="M541.057,408.47l7.778,1.746s19.863,28.625,21.418,30.18-7.407,7.408-11.1,7.408-21.8,2.116-27.059,7.005-3.069-19.715-3.069-20.275S535.6,418.4,535.6,418.4Z" transform="translate(-823.134 -32.86)" fill="#f7921e"/>
    <g id="Group_2" data-name="Group 2" transform="translate(-375.32 264.138)" opacity="0.1">
      <path id="Path_63" data-name="Path 63" d="M493.139,305.564a15.611,15.611,0,0,1,.053-2.434,21.663,21.663,0,0,0-3.259,7.99v2.952c0,1.714,0,3.439-.053,5.154h-.148v.794a4.223,4.223,0,0,0-.053-.815c-2.116-.339-3.63-2.116-5.207-3.534s-4.042-2.773-5.968-1.682a6.064,6.064,0,0,0-2.116,2.508l-3.143,5.545a4.1,4.1,0,0,0-1.471-3.048,15.778,15.778,0,0,0-9.45,14.815,21.5,21.5,0,0,1-10.042-16.857,21.4,21.4,0,0,0,10.042,19.186,15.8,15.8,0,0,1,9.45-14.815,4.138,4.138,0,0,1,1.471,3.058l3.111-5.545a6.064,6.064,0,0,1,2.117-2.508c1.926-1.058,4.328.19,5.968,1.682s3.238,3.344,5.439,3.587q0-4.063.085-8.106A21.554,21.554,0,0,1,493.139,305.564Z" transform="translate(-452.256 -303.13)"/>
      <path id="Path_64" data-name="Path 64" d="M487.511,315.777c.053-.72.138-1.439.243-2.117l.116-2.921A21.418,21.418,0,0,0,487.511,315.777Z" transform="translate(-450.205 -302.687)"/>
      <path id="Path_65" data-name="Path 65" d="M518.7,327.949c-2.889,1.545-6.571.254-9.027-1.9s-4.116-5.069-6.286-7.524a2.338,2.338,0,0,0,.667,2.561,2.493,2.493,0,0,1-.614-.159c2.117,2.434,3.8,5.291,6.233,7.408s6.138,3.45,9.027,1.9,3.715-5.164,3.46-8.688C521.97,324.319,520.975,326.721,518.7,327.949Z" transform="translate(-449.287 -302.234)"/>
      <path id="Path_66" data-name="Path 66" d="M504.1,321.635a17.99,17.99,0,0,1-13.185-15.725c-.6,8.307,5.661,16.635,13.863,18.233A2.328,2.328,0,0,1,504.1,321.635Z" transform="translate(-450.008 -302.968)"/>
    </g>
    <path id="Path_67" data-name="Path 67" d="M996.017,497.022s-4.169-.582-4.169-6.646-2.984-17.418-2.984-17.418h0s-2.582-19.757-6.148-22.889-8.148-21.524-8.148-21.524-.783-9.979-2.381-12.127-3.757-7.408-6.942-14.91-16.434-12.646-16.434-12.646S924.8,374.935,917.995,370.4h0a10.525,10.525,0,0,1-1.735-1.312c-1.185-1.545-6.349-1.577-6.349-1.577a104.545,104.545,0,0,1-1.228-10.879v-1.143a36.614,36.614,0,0,0,16.1-19.916c.127-.4.233-.815.349-1.227a3.439,3.439,0,0,0,2.116-1.862c.6-1.365.625-2.952,1.386-4.233.889-1.5,2.582-2.307,3.915-3.429,3.365-2.868,4.233-7.683,4.074-12.053-.106-3.556-.677-7.132-.455-10.656a4.2,4.2,0,0,1,.063-.889c.064-.518.138-1.058.233-1.566.518-2.624,1.651-5.1,2.286-7.7s.7-5.534-.783-7.778c-2.169-3.291-6.688-3.947-10.656-4.233-4.5-.381-8.466.106-11.4-3.63a39.9,39.9,0,0,0-4.529-5.46c-.593-.55-6.349-4.074-6.349-4.3a25.726,25.726,0,0,0-17.99-1.386c-2.995.868-5.8,2.286-8.836,2.995-6.518,1.545-14.032-.127-19.577,3.609-3.09,2.116-4.942,5.492-6.677,8.762q-2.116,4.042-4.3,8.1c-2.349,4.434-4.72,8.942-5.7,13.852a23.493,23.493,0,0,0-.392,3.249h0v1.683a5.807,5.807,0,0,0,.063,1.058,6.088,6.088,0,0,0,.074.656c.074.222.1.72.159,1.058s.19.942.318,1.4a2.143,2.143,0,0,0,.19.593c.063.2.233.709.37,1.058s.148.37.233.55a9.928,9.928,0,0,0,.54,1.058c.085.138.148.275.233.413a12,12,0,0,0,.973,1.418c2.254,2.826,5.6,4.624,8.064,7.27v1.185a36.223,36.223,0,0,0,16.593,29.524c0,.4.053.815.074,1.228a60.394,60.394,0,0,1-.116,9.418,4.465,4.465,0,0,0-3.513-1.566,5.033,5.033,0,0,0-1.355.116l-.1-.074h0v.1c-2.328.572-5.2,2.995-7.937,9.884,0,0-8.339,9.4-14.688,9.005s-22.424,9.789-22.424,9.789-15.683,10.169-19.048,20.54a143.569,143.569,0,0,1-6.762,17.228l-19.439,39.916h0L770.5,501.974s1.979,14.085,1.587,16.244,8.138,21.524,8.138,21.524,28.18,49.5,39.694,52.043l.825-.571a7.2,7.2,0,0,0,1.556.571l2.37-1.661a24.774,24.774,0,0,1-.191,5.577c-1.577,4.9.6,36.794,3.376,43.048s1.788,88.266,1.788,88.266l-.391,7.228a3.065,3.065,0,0,0,.1.635l-.1,1.714.286.148a20.445,20.445,0,0,1-.286,6.9c-.995,3.175-1.4,12.138-1.4,12.138s-7.937,50.667-4.17,60.848,6.953,21.334,6.953,21.334,3.968,12.7.191,14.815-14.477,5.873-12.3,11.154c2.011,4.889,9.64,17.99,10.773,19.905l-.1,1.058-1.556,16.857a21.167,21.167,0,0,0,1.788,6.434c1.7,3.683,5.005,7.482,11.312,7.069,1.058-.074,2.275-.19,3.471-.349,11.524-1.556,25.7-6.7,25.7-6.7a10.135,10.135,0,0,1-2-1.661h0a5.81,5.81,0,0,1-1.767-4.233c.169-3.079-5.577-17.694-7.016-21.3l-.328-.8s13.1-13.7,10.921-25.831c0,0-14.5-8.466-9.725-13.122s13.3-17.99,13.3-17.99.392-49.9,0-57.334a61.789,61.789,0,0,1,.73-15.492c.159-.762.349-1.513.55-2.265a135.189,135.189,0,0,0,19.958,1.513q3.661,0,7.408-.148,0,1.058.1,2.286c.55,12.36,1.577,34.043,2.413,42.1,1.185,11.535,7.736,42.657,7.736,42.657s-12.5,8.011,2.18,27.789c0,0,0,7.154-.974,8.2h0A89.547,89.547,0,0,0,910.9,882.9c-.614,3.714-.868,7.492.127,9.439,2.381,4.677,16.667,4.3,16.667,4.3h0a2.247,2.247,0,0,1,.349-.053,20.392,20.392,0,0,1,15.122,4.551c5.429,4.36,26.022,2.455,37.186,1.058,4.37-.561,7.291-1.058,7.291-1.058a4.279,4.279,0,0,0,.148-1.524h0c-.117-2.741-2.265-8.751-16.826-14.117,0,0-13.693-9.206-13.5-17.228h-1.884c.995-.031,1.693-.031,1.693-.031s-5.365-19.567-3.175-21.164-4.37-23.281-4.37-23.281-3.757-36.4-3.969-38.943a22.374,22.374,0,0,1,.995-6.455l-.995-19.969s-.19-6.635,0-8.794a41.355,41.355,0,0,0-.444-5.6c-.1-.741-.19-1.513-.3-2.275,5.132-1.3,8.466-2.5,8.466-2.5l-.593-69.472c4.36-8.466,5.164-27.048,5.143-40.212,0-8.466-.381-14.73-.381-14.73l5.958-9.725s1.376-11.64-.8-14.191c-.963-1.153-.529-2.349.265-3.333a11.1,11.1,0,0,1,1.323-.931,1.666,1.666,0,0,1-.138-.233,10.507,10.507,0,0,1,1.323-.942s-2.116-3.28-.222-4.667c1.777,1.206,3.365,2.169,4.571,2.857-.085.772-.169,1.217-.169,1.217l.508-1.058c1.164.656,1.873,1.058,1.873,1.058s9.333-18.593,9.132-21.323,6.349-14.286,6.349-14.286.794-6.074,4.37-8.614,2.773-20.942,2.773-20.942.995-9.588,3.376-13.492S996.017,497.022,996.017,497.022Zm-178.585-8.159.18,4.434c-1.058-1.7-1.82-2.921-1.82-2.921Z" transform="translate(27.952 -4.262)" fill="url(#linear-gradient-2)"/>
    <path id="Path_68" data-name="Path 68" d="M962.924,561.182l-2.286,9.736s-18.307-9.365-21.6-21.217,5.513-16.371,5.513-16.371l17.069,7.217Z" transform="translate(37.721 11.41)" fill="#fff"/>
    <path id="Path_69" data-name="Path 69" d="M962.924,561.182l-2.286,9.736s-18.307-9.365-21.6-21.217,5.513-16.371,5.513-16.371l17.069,7.217Z" transform="translate(37.721 11.41)" opacity="0.1"/>
    <path id="Path_70" data-name="Path 70" d="M866.759,874.878s-16.931,6.222-28.572,7.005c-6.18.413-9.429-3.376-11.1-7.027a21.477,21.477,0,0,1-1.757-6.349l1.534-16.773.8-8.921L852.4,836.38l3.5,10.72.328.8c1.4,3.587,7.048,18.127,6.878,21.164a5.81,5.81,0,0,0,1.725,4.233A9.832,9.832,0,0,0,866.759,874.878Z" transform="translate(31.144 29.053)" fill="#fff"/>
    <path id="Path_71" data-name="Path 71" d="M977.9,866.413a4.232,4.232,0,0,1-.148,1.524s-36.212,6.032-43.62,0a19.61,19.61,0,0,0-15.2-4.476s-14.011.381-16.349-4.233c-.974-1.937-.72-5.693-.117-9.386a90.045,90.045,0,0,1,2.455-10.286l.561-.444,3.334-2.677,39.027-1.153h.3c-.19,7.979,13.238,17.133,13.238,17.133C975.677,857.7,977.783,863.683,977.9,866.413Z" transform="translate(35.604 28.989)" fill="#fff"/>
    <path id="Path_72" data-name="Path 72" d="M977.91,865.612a4.357,4.357,0,0,1-.159,1.524s-36.212,6.032-43.609,0a19.609,19.609,0,0,0-15.207-4.476s-14.021.381-16.36-4.233c-.963-1.937-.72-5.693-.116-9.4,5.4.54,13.916,1.884,17.26,5.1,5.058,4.868,13.63,9.735,18.879,10.127C942.746,864.512,967.413,865.295,977.91,865.612Z" transform="translate(35.603 29.79)" opacity="0.1"/>
    <path id="Path_73" data-name="Path 73" d="M866.663,872.849s-16.932,6.222-28.572,7.006c-6.18.413-9.429-3.376-11.1-7.027,4.318,1.45,10.3,2.963,13.439,1.577,3.725-1.661,16.932-2.72,24.339-3.175a9.614,9.614,0,0,0,1.894,1.619Z" transform="translate(31.24 31.082)" opacity="0.1"/>
    <path id="Path_74" data-name="Path 74" d="M889.769,402.364c-13.969-5.429-31.937-23.366-27.45-31.747a18.977,18.977,0,0,0,1.746-6.73,61.452,61.452,0,0,0,.127-9.524,130.81,130.81,0,0,0-1.873-15.5s43.609.984,41.069,7.407c-.741,1.894-.868,5.164-.656,8.815s.73,7.81,1.281,11.312c.751,4.794,1.524,8.466,1.524,8.466s-2.677,3.735-4.233,3.936S909.811,410.142,889.769,402.364Z" transform="translate(33.256 0.088)" fill="#cf6f80"/>
    <path id="Path_75" data-name="Path 75" d="M856.106,847.854l-.328.36c-13.037-15.768-28.8,3.894-28.8,3.894l-.233-.423.8-8.921,24.73-6.434,3.5,10.72Z" transform="translate(31.226 29.05)" opacity="0.1"/>
    <path id="Path_76" data-name="Path 76" d="M948,836.393s-9.524-.191-14.6,4.3-29.63.963-28.572,0a3.66,3.66,0,0,0,.55-1.619l3.334-2.677,39.027-1.153C947.881,835.981,948,836.393,948,836.393Z" transform="translate(35.77 28.987)" opacity="0.1"/>
    <path id="Path_77" data-name="Path 77" d="M872.921,720.47a29.7,29.7,0,0,0-1.608,5.429,62.123,62.123,0,0,0-.73,15.408c.391,7.407,0,57.049,0,57.049s-8.371,13.238-13.048,17.905,9.524,13.048,9.524,13.048c2.117,12.074-10.709,25.7-10.709,25.7-13.037-15.768-28.8,3.884-28.8,3.884s-8.571-14.815-10.709-20.106,8.37-8.942,12.064-11.1-.191-14.815-.191-14.815-3.111-11.1-6.815-21.228,4.085-60.53,4.085-60.53.4-8.963,1.365-12.085a20.466,20.466,0,0,0,.286-6.857c-.063-.772-.137-1.407-.19-1.852s-.1-.635-.1-.635l.148-.254,5.291-9.863S875.461,714.258,872.921,720.47Z" transform="translate(30.633 21.088)" fill="#28abe3"/>
    <path id="Path_78" data-name="Path 78" d="M948.626,842.556s-9.524-.2-14.6,4.233-29.63.974-28.572,0,.963-8.169.963-8.169c-14.4-19.672-2.116-27.651-2.116-27.651s-6.424-30.953-7.588-42.435c-.815-8.011-1.82-29.63-2.36-41.874-.233-5.291-.37-8.942-.37-8.942l11.661-2.318,1.513-.3,28.381-5.7s.783,5.291,1.312,9.619a42.214,42.214,0,0,1,.434,5.577c-.18,2.116,0,8.752,0,8.752l.974,19.852a22.907,22.907,0,0,0-.974,6.423c.2,2.54,3.894,38.741,3.894,38.741s6.423,21.609,4.233,23.164S948.626,842.556,948.626,842.556Z" transform="translate(35.141 21.661)" fill="#28abe3"/>
    <path id="Path_79" data-name="Path 79" d="M903.35,346.3c-.741,1.894-.868,5.164-.656,8.815a36.244,36.244,0,0,1-38.54-.72,130.812,130.812,0,0,0-1.873-15.5S905.889,339.874,903.35,346.3Z" transform="translate(33.295 0.089)" opacity="0.1"/>
    <path id="Path_80" data-name="Path 80" d="M920.984,325.8a36.2,36.2,0,1,1-72.4.868c0-.3,0-.571,0-.868a36.212,36.212,0,0,1,72.425,0Z" transform="translate(32.497 -2.781)" fill="#cf6f80"/>
    <path id="Path_81" data-name="Path 81" d="M889.769,400.987c-13.969-5.429-31.937-23.366-27.45-31.747a18.978,18.978,0,0,0,1.746-6.73l19.122,15.725,11.831,9.7,8.995-22.889c.751,4.794,1.524,8.466,1.524,8.466s-2.677,3.736-4.233,3.937S909.811,408.765,889.769,400.987Z" transform="translate(33.256 1.465)" opacity="0.1"/>
    <path id="Path_82" data-name="Path 82" d="M923.992,452.01,908.023,720.269,887.2,721.634,833.26,566.087l8.847-184.67L843.98,342.4l23.979,19.693,11.831,9.7,9.26-23.567,17.217,15.006Z" transform="translate(48.484 19.934)" fill="#28abe3"/>
    <path id="Path_83" data-name="Path 83" d="M872.329,720.465a29.682,29.682,0,0,0-1.608,5.429,153.438,153.438,0,0,1-43.7-13.641l-.286-.148.1-1.7v-.889l5.291-9.863S874.868,714.253,872.329,720.465Z" transform="translate(31.225 21.093)" opacity="0.1"/>
    <path id="Path_84" data-name="Path 84" d="M905.994,725.038a107.109,107.109,0,0,1-11.7,1.344c-.233-5.291-.37-8.942-.37-8.942l11.725-2.37Z" transform="translate(35.137 21.991)" opacity="0.1"/>
    <path id="Path_85" data-name="Path 85" d="M936.164,719.019c-7.524,1.958-19.154,4.159-29.546,2.783l-.148-6.7,28.382-5.7S935.6,714.649,936.164,719.019Z" transform="translate(35.868 21.661)" opacity="0.1"/>
    <path id="Path_86" data-name="Path 86" d="M913.981,743.32c-43.387,7.408-83.123-13.831-83.123-13.831l.381-7.2s.984-81.578-1.746-87.832-4.857-37.927-3.312-42.763-5.641-77.853-5.641-77.853l-1.164-29.63L776.74,466.892l19.048-39.715a143.546,143.546,0,0,0,6.624-17.143c3.312-10.318,18.688-20.445,18.688-20.445s15.768-10.117,22-9.736,14.4-8.953,14.4-8.953c6.032-15.376,11.492-8.466,11.492-8.466a13.61,13.61,0,0,1-.3,2.275c-2.117,16.879,34.223,70.213,34.741,71.165h0l3.5,84.3,3.5,106.679Z" transform="translate(28.315 1.37)" opacity="0.1"/>
    <path id="Path_87" data-name="Path 87" d="M912.882,743.32c-43.387,7.408-83.134-13.831-83.134-13.831l.391-7.2s.974-81.578-1.757-87.832-4.857-37.958-3.3-42.837S819.41,513.8,819.41,513.8l-1.175-29.63L775.61,466.85l19.048-39.715A145.754,145.754,0,0,0,801.282,410c3.312-10.286,18.741-20.424,18.741-20.424s15.767-10.117,21.99-9.736,14.434-8.942,14.434-8.942c6.042-15.376,12.7-8.466,12.7-8.466,0,.741-.635,1.058-.3,2.275,4.656,16.371,33.059,70.213,33.577,71.165h0l3.5,84.3,3.429,106.732Z" transform="translate(28.249 1.37)" fill="#fff"/>
    <path id="Path_88" data-name="Path 88" d="M896.479,438.124c-4.667-1.947-29.387-30.17-29.387-30.17V401.53c-.9-2.116-6.254-.825-10.582.656l1.862-39.017,2.116,1.757C865.113,381.287,895.971,437.182,896.479,438.124Z" transform="translate(32.959 1.503)" opacity="0.1"/>
    <path id="Path_89" data-name="Path 89" d="M897.59,435.922c-4.677-1.958-29.4-30.17-29.4-30.17v-6.434c-.9-2.116-6.244-.825-10.582.656L859.441,361l2.117,1.746C866.224,379.085,897.071,434.97,897.59,435.922Z" transform="translate(33.023 1.377)" fill="#fff"/>
    <path id="Path_90" data-name="Path 90" d="M828.011,564.971c.582,0,30.17-3.111,30.17-3.111s17.916,35.239,16.741,43.8-3.3,16.159-10.508,14.815-38.784,1.058-38.784,1.058Z" transform="translate(31.161 13.071)" opacity="0.1"/>
    <path id="Path_91" data-name="Path 91" d="M826.9,562.761c.593,0,30.18-3.111,30.18-3.111s17.905,35.292,16.741,43.757-3.312,16.159-10.508,14.815-38.794,1.058-38.794,1.058Z" transform="translate(31.097 12.942)" fill="#fff"/>
    <path id="Path_92" data-name="Path 92" d="M848.73,547s27.154,14.6,27.736,19.048-13.82-1.947-16.932-2.73a40.338,40.338,0,0,0-6.233-.974l-20.752.561Z" transform="translate(31.564 12.206)" fill="#cf6f80"/>
    <circle id="Ellipse_10" data-name="Ellipse 10" cx="2.857" cy="2.857" r="2.857" transform="translate(918.993 435.733)" opacity="0.1"/>
    <circle id="Ellipse_11" data-name="Ellipse 11" cx="2.857" cy="2.857" r="2.857" transform="translate(918.993 434.569)" fill="#3f3d56"/>
    <circle id="Ellipse_12" data-name="Ellipse 12" cx="2.857" cy="2.857" r="2.857" transform="translate(924.253 559.417)" opacity="0.1"/>
    <circle id="Ellipse_13" data-name="Ellipse 13" cx="2.857" cy="2.857" r="2.857" transform="translate(924.253 558.243)" fill="#3f3d56"/>
    <circle id="Ellipse_14" data-name="Ellipse 14" cx="2.857" cy="2.857" r="2.857" transform="translate(921.851 497.575)" opacity="0.1"/>
    <circle id="Ellipse_15" data-name="Ellipse 15" cx="2.857" cy="2.857" r="2.857" transform="translate(921.851 496.411)" fill="#3f3d56"/>
    <path id="Path_93" data-name="Path 93" d="M954.984,572.36s1.947,2.921,0,4.233.19,4.677.19,4.677-4.857,2.836-2.72,5.408.783,14.117.783,14.117l-5.841,9.725s.349,6.233.37,14.656c0,13.143-.773,31.62-5.048,40.043l.571,69.112s-20.455,7.482-37.577,5.2l-2.54-110.9s3.7-62.89,5.069-74.954a125.592,125.592,0,0,0,.974-18.889s-.582-18.879-2.54-27.63c0,0-2.117-37.969-2.328-48.477-.1-5.026.169-19.693.466-33.641.328-15.249.7-29.63.7-29.63l-3.863-30.572s3.863-.381,5.026,1.164a11.157,11.157,0,0,0,1.693,1.3h0c6.677,4.508,30.234,18.371,30.234,18.371s13.037,5.185,16.159,12.614,5.291,12.7,6.8,14.815,2.339,12.064,2.339,12.064,4.487,18.307,7.99,21.408,6.021,22.783,6.021,22.783l-30.953,24.339s-2.719,40.487-3.3,42.054S954.984,572.36,954.984,572.36Z" transform="translate(35.587 1.597)" fill="#fff"/>
    <path id="Path_94" data-name="Path 94" d="M956.161,572.38s1.937,2.921,0,4.233.18,4.677.18,4.677-4.857,2.836-2.72,5.407.783,14.117.783,14.117l-5.82,9.725s.349,6.233.381,14.656c0,13.143-.773,31.619-5.048,40.043l.582,69.112s-20.455,7.482-37.577,5.2l-2.529-110.9s3.693-62.89,5.069-74.954a124.409,124.409,0,0,0,.963-18.889s-.582-18.879-2.529-27.63c0,0-2.116-37.969-2.339-48.477-.1-5.026.169-19.693.466-33.641.328-15.249.7-29.63.7-29.63l-5.1-30.985s5.1,0,6.275,1.577a10.044,10.044,0,0,0,1.693,1.3h0c6.667,4.508,30.223,18.371,30.223,18.371s13.006,5.185,16.18,12.614,5.291,12.7,6.8,14.815,2.339,12.064,2.339,12.064,4.487,18.307,7.99,21.408,6.032,22.783,6.032,22.783L948.2,493.712s-2.72,40.487-3.312,42.054S956.161,572.38,956.161,572.38Z" transform="translate(35.585 1.577)" fill="#fff"/>
    <path id="Path_95" data-name="Path 95" d="M919.028,404.281l2.8,8.148-14.72,14.815c.328-15.249.7-29.63.7-29.63l-5.1-30.974s5.1,0,6.275,1.577a10.05,10.05,0,0,0,1.693,1.3h0l12.508,36.075Z" transform="translate(35.649 1.705)" opacity="0.1"/>
    <path id="Path_96" data-name="Path 96" d="M917.9,402.072l2.8,8.138-14.709,14.815c.317-15.249.7-29.63.7-29.63L901.58,364.41s5.111,0,6.275,1.577a10.585,10.585,0,0,0,1.693,1.3h0l12.582,36.106Z" transform="translate(35.583 1.575)" fill="#fff"/>
    <path id="Path_97" data-name="Path 97" d="M920.984,325.8a36.1,36.1,0,0,1-1.778,11.228,1.5,1.5,0,0,1-1.143-.275c-.286-9.524-4.963-18.477-10.73-26.085a27.633,27.633,0,0,0-5.82-6.032,11.4,11.4,0,0,0-7.894-2.233c-3.175.434-5.979,2.593-9.186,2.868-4.233.349-8.021-2.582-12.222-2.72a11.979,11.979,0,0,0-8.984,4.169,24.5,24.5,0,0,0-4.815,8.921,52.256,52.256,0,0,0-2.688,15.408c-.053,2.963-.339,6.677-3.09,7.757a15.768,15.768,0,0,0-3.99-12.064l-.063-.074V325.8a36.212,36.212,0,1,1,72.425,0Z" transform="translate(32.497 -2.781)" opacity="0.1"/>
    <path id="Path_98" data-name="Path 98" d="M900.425,269.61a24.932,24.932,0,0,0-17.588-1.376c-2.931.868-5.693,2.275-8.667,2.984-6.349,1.534-13.757-.127-19.207,3.587-3.026,2.116-4.847,5.46-6.54,8.72l-4.233,8.053c-2.307,4.413-4.635,8.9-5.6,13.757s-.381,10.3,2.7,14.212c2.233,2.836,5.556,4.624,7.99,7.3a15.873,15.873,0,0,1,3.979,12.1c2.751-1.058,3.026-4.794,3.09-7.757a52.318,52.318,0,0,1,2.688-15.408,24.511,24.511,0,0,1,4.815-8.921,11.99,11.99,0,0,1,8.984-4.18c4.233.148,8.032,3.079,12.223,2.72,3.175-.265,5.99-2.423,9.185-2.857a11.344,11.344,0,0,1,7.895,2.233,27.115,27.115,0,0,1,5.81,6.032c5.778,7.619,10.466,16.529,10.741,26.085,1.2.868,2.921-.275,3.513-1.63s.614-2.942,1.365-4.233c.868-1.492,2.529-2.3,3.831-3.418,3.3-2.846,4.127-7.64,4-11.99s-.974-8.762-.148-13.037c.5-2.614,1.619-5.079,2.233-7.672s.688-5.5-.762-7.736c-2.116-3.27-6.571-3.926-10.455-4.233-4.413-.381-8.36.106-11.175-3.609a41.348,41.348,0,0,0-4.445-5.439C906.065,273.335,900.425,269.843,900.425,269.61Z" transform="translate(31.891 -4.082)" fill="#512e4e"/>
    <path id="Path_99" data-name="Path 99" d="M789.081,481.484,778.033,461.05l-3.5,31.535s1.947,14.011,1.556,16.159,7.979,21.408,7.979,21.408,27.651,49.26,38.943,51.789l38.1-27.26-10.117-12.847s-3.5-1.365-4.381,0c0,0-18.794-32.318-20.73-34.646s-1.566-7.016-1.566-7.016-2.921-3.111-1.947-6.032-5.587-13.037-5.587-13.037l6.032-5.64Z" transform="translate(28.186 7.202)" opacity="0.1"/>
    <path id="Path_100" data-name="Path 100" d="M778.743,458.84l-2.921,2.339-3.5,31.535s1.947,14.011,1.556,16.159,7.99,21.408,7.99,21.408,27.641,49.26,38.932,51.789l38.16-27.26-10.127-12.847s-3.5-1.365-4.381,0c0,0-18.783-32.318-20.73-34.646s-1.556-7.016-1.556-7.016-2.921-3.111-1.947-6.032-5.651-13.037-5.651-13.037l6.032-5.64Z" transform="translate(28.058 7.073)" fill="#fff"/>
    <path id="Path_101" data-name="Path 101" d="M950.875,576.656c2.116,2.571.783,14.127.783,14.127l-5.841,9.661s.349,6.244.37,14.667l-9.82,3.069a5.841,5.841,0,0,1-7.577-5.757l1.7-54.6,22.91,8.752c-1.947,1.354.191,4.677.191,4.677S948.738,574.085,950.875,576.656Z" transform="translate(37.167 12.836)" opacity="0.1"/>
    <path id="Path_102" data-name="Path 102" d="M951.974,575.557c2.117,2.561.783,14.117.783,14.117l-5.82,9.672s.349,6.233.381,14.656l-10,3.122a5.7,5.7,0,0,1-7.407-5.619l1.7-54.795,22.9,8.773c-1.958,1.355.18,4.677.18,4.677S949.836,572.985,951.974,575.557Z" transform="translate(37.232 12.771)" fill="#fff"/>
    <path id="Path_103" data-name="Path 103" d="M958.949,550.369s-1.556,9.937-5.45,10.519-5.64,16.074-9.524,15.535-1.312-14.413-1.175-17.1-4.233-13.82-.973-16.35,13.63,0,13.63,0Z" transform="translate(37.856 11.906)" fill="#cf6f80"/>
    <path id="Path_104" data-name="Path 104" d="M967.406,478.415l7.333-14.815s2.931,11.291,2.931,17.323,4.085,6.624,4.085,6.624,4.476,5.291,2.116,9.154-3.3,13.429-3.3,13.429.773,18.3-2.73,20.826-4.286,8.572-4.286,8.572-6.423,11.482-6.223,14.212-8.952,21.217-8.952,21.217,4.476-22.974-21.609-32.9c0,0-.2-7.789,1.746-9.926s4.984-3.175,3.079-13.926-.55-23.715-.55-26.307,5.841-18.752,5.841-18.752Z" transform="translate(37.631 7.35)" opacity="0.1"/>
    <path id="Path_105" data-name="Path 105" d="M970.534,461.6l6.413,2.116s2.931,11.291,2.931,17.323,4.085,6.624,4.085,6.624,4.476,5.291,2.116,9.154-3.312,13.429-3.312,13.429.783,18.3-2.72,20.826-4.233,8.571-4.233,8.571-6.423,11.482-6.222,14.212-8.963,21.217-8.963,21.217,4.476-22.974-21.609-32.9c0,0-.19-7.788,1.757-9.926s4.984-3.175,3.079-13.926-.551-23.715-.551-26.307,5.842-18.752,5.842-18.752Z" transform="translate(37.763 7.234)" fill="#fff"/>
    <path id="Path_106" data-name="Path 106" d="M834.92,824.66s10.222-6.423,16.931-1.757S834.92,824.66,834.92,824.66Z" transform="translate(31.702 28.17)" opacity="0.1"/>
    <path id="Path_107" data-name="Path 107" d="M910,805.7s9.048-1.164,16.646,7.016S910,805.7,910,805.7Z" transform="translate(36.073 27.264)" opacity="0.1"/>
    <g id="Group_3" data-name="Group 3" transform="translate(870.045 286.46)" opacity="0.1">
      <path id="Path_108" data-name="Path 108" d="M926.568,323.472c-1.3,1.132-2.974,1.926-3.841,3.418-.741,1.28-.762,2.868-1.355,4.233s-2.317,2.5-3.524,1.63c-.275-9.524-4.963-18.466-10.73-26.085a27.064,27.064,0,0,0-5.81-6.021A11.376,11.376,0,0,0,893.4,298.4c-3.175.434-5.968,2.593-9.175,2.868-4.233.349-8.032-2.582-12.233-2.72a11.937,11.937,0,0,0-8.974,4.169,24.506,24.506,0,0,0-4.815,8.921,52.321,52.321,0,0,0-2.688,15.408c-.063,2.953-.339,6.635-3.069,7.736a14.646,14.646,0,0,1,0,2.36c2.762-1.058,3.037-4.794,3.1-7.757a52.316,52.316,0,0,1,2.688-15.408,24.5,24.5,0,0,1,4.815-8.921,11.979,11.979,0,0,1,8.974-4.18c4.233.148,8.042,3.079,12.233,2.72,3.175-.265,5.989-2.423,9.175-2.857a11.376,11.376,0,0,1,7.9,2.233,27.113,27.113,0,0,1,5.81,6.032c5.767,7.619,10.455,16.529,10.73,26.085,1.207.868,2.931-.275,3.524-1.63s.614-2.942,1.354-4.233c.868-1.492,2.54-2.3,3.842-3.418,3.3-2.847,4.127-7.64,4-11.99v-.4C930.388,317.207,929.383,321.049,926.568,323.472Z" transform="translate(-837.323 -288.731)"/>
      <path id="Path_109" data-name="Path 109" d="M849.272,322.269c-2.423-2.677-5.746-4.476-7.979-7.312a15.354,15.354,0,0,1-3.079-8.656,16.308,16.308,0,0,0,3.079,10.995c2.233,2.836,5.556,4.624,7.979,7.3a15.874,15.874,0,0,1,4,9.439A15.874,15.874,0,0,0,849.272,322.269Z" transform="translate(-838.155 -288.268)"/>
      <path id="Path_110" data-name="Path 110" d="M928.383,291.3c-.624,2.593-1.735,5.058-2.243,7.672a24.487,24.487,0,0,0-.328,5.355,20.54,20.54,0,0,1,.328-3.016c.508-2.614,1.619-5.079,2.243-7.672a13.3,13.3,0,0,0,.349-4.381,14.7,14.7,0,0,1-.349,2.042Z" transform="translate(-833.053 -289.26)"/>
    </g>
  </g>
</svg>
